<svg width="2559" height="1228" viewBox="0 0 2559 1228" fill="none" xmlns="http://www.w3.org/2000/svg">
<path d="M1363.06 902.894C1270.42 902.574 1181.69 865.576 1116.29 800.001C1050.88 734.426 1014.14 645.618 1014.1 553.023V18.1387H1132.46V553.071C1132.17 583.33 1137.99 613.336 1149.59 641.289C1161.18 669.243 1178.3 694.569 1199.92 715.75C1221.19 737.44 1246.55 754.696 1274.54 766.521C1302.52 778.346 1332.58 784.504 1362.96 784.639H1658.12V902.894H1363.06Z" fill="white"/>
<path d="M1777.68 902.894V838.462H2262.34C2307.91 838.411 2351.6 820.297 2383.82 788.093C2416.05 755.889 2434.18 712.225 2434.25 666.675C2434.25 569.543 2358.74 493.532 2262.34 493.532H1963.6C1900.58 493.532 1840.14 468.509 1795.59 423.969C1751.03 379.429 1725.99 319.019 1725.99 256.029C1725.99 193.04 1751.03 132.63 1795.59 88.0892C1840.14 43.5488 1900.58 18.5264 1963.6 18.5264H2431.73V82.8617H1963.6C1870.25 82.8617 1796.39 156.353 1791.74 253.825C1791.69 254.567 1791.69 255.311 1791.74 256.053C1799.2 354.736 1873.06 429.148 1963.55 429.148H2262.44C2309.19 429.401 2354.83 443.444 2393.64 469.518C2432.44 495.591 2462.69 532.535 2480.57 575.717C2498.46 618.899 2503.2 666.398 2494.19 712.259C2485.18 758.121 2462.83 800.304 2429.94 833.521C2408.04 855.628 2381.95 873.15 2353.2 885.062C2324.45 896.973 2293.61 903.036 2262.49 902.894H1777.68Z" fill="white"/>
<path d="M211.12 902.896L460.913 193.56C462.292 188.187 465.532 183.476 470.057 180.265C474.583 177.054 480.101 175.551 485.63 176.023C491.063 175.943 496.407 177.405 501.042 180.238C505.652 183.42 508.97 188.145 510.397 193.56L760.384 902.896H946.154L667.038 120.892C653.177 80.295 629.429 49.6292 596.52 29.6698C562.659 10.2297 524.292 0 485.243 0C446.194 0 407.826 10.2297 373.965 29.6698C341.59 49.6292 318.084 80.295 304.319 120.747L25.3496 902.896H211.12Z" fill="white"/>
<path d="M141.48 1158H115.02V1088.07H51.57V1158H24.84V994.92L48.33 971.43H141.48V1158ZM131.76 994.92H51.57V1084.83L71.82 1064.58H115.02V1011.66L131.76 994.92ZM270.823 1041.36H204.133V1064.58H240.853L264.343 1088.07V1134.51L240.853 1158H177.403V1134.51H237.613V1088.07H200.893L177.403 1064.58V1041.36L200.893 1017.87H247.063L270.823 1041.36ZM376.555 1041.36H309.865V1064.58H346.585L370.075 1088.07V1134.51L346.585 1158H283.135V1134.51H343.345V1088.07H306.625L283.135 1064.58V1041.36L306.625 1017.87H352.795L376.555 1041.36ZM429.908 994.92H403.178V968.19H429.908V994.92ZM429.908 1158H403.178V1038.39L429.908 1011.39V1158ZM555.588 1041.36H488.898V1064.58H525.618L549.108 1088.07V1134.51L525.618 1158H462.168V1134.51H522.378V1088.07H485.658L462.168 1064.58V1041.36L485.658 1017.87H531.828L555.588 1041.36ZM650.521 1017.87L627.031 1041.36H610.291V1134.51H643.501V1158H607.051L583.561 1134.51V1041.36H550.351L573.841 1017.87H583.561V998.16L610.291 971.43V1017.87H650.521ZM764.231 1158H691.061L667.841 1134.51V1041.36L691.061 1017.87H741.011L764.231 1041.36V1088.07L741.011 1111.29H697.811L721.571 1088.07H737.771V1041.36H694.571V1134.51H764.231V1158ZM895.803 1158H869.343V1138.02L849.903 1158H822.633L799.413 1134.51V1041.36L822.633 1017.87H869.343V971.16L895.803 944.7V1158ZM869.343 1134.51V1021.11L848.823 1041.36H826.143V1134.51H869.343ZM1106.22 1158H992.824V971.43H1019.55V1134.51H1079.49V1111.29L1106.22 1084.83V1158ZM1164.5 994.92H1137.77V968.19H1164.5V994.92ZM1164.5 1158H1137.77V1038.39L1164.5 1011.39V1158ZM1300.98 1120.74L1263.45 1158H1241.58L1204.32 1120.74V1011.39L1230.78 1038.12V1116.42L1252.65 1137.48L1274.25 1116.42V1038.12L1300.98 1011.39V1120.74ZM1367.79 994.92H1341.06V968.19H1367.79V994.92ZM1367.79 1158H1341.06V1038.39L1367.79 1011.39V1158ZM1510.75 1158H1484.29V1041.36H1441.09V1158H1414.36V1017.87H1441.09V1038.12L1460.8 1017.87H1487.53L1510.75 1041.36V1158ZM1656.39 1017.87L1633.17 1041.36H1576.47V1134.51H1619.67V1064.58H1646.4V1204.71L1623.18 1227.93H1546.5L1569.45 1204.71H1619.67V1137.48L1592.94 1158H1573.23L1549.74 1134.51V1041.36L1573.23 1017.87H1656.39ZM1846.8 994.92H1755V1041.36H1816.83L1839.78 1064.58V1134.51L1816.83 1158H1751.49L1728.27 1134.51V1115.88L1755 1090.23V1134.51H1813.05V1064.58H1751.49L1728.27 1041.36V994.92L1751.49 971.43H1823.31L1846.8 994.92ZM1978.2 1204.71L1954.98 1227.93H1878.3L1901.52 1204.71H1951.74V1138.02L1932.03 1158H1905.03L1881.54 1134.51V1017.87H1908.27V1134.51H1951.74V1017.87H1978.2V1204.71ZM2104.13 1041.36H2037.44V1064.58H2074.16L2097.65 1088.07V1134.51L2074.16 1158H2010.71V1134.51H2070.92V1088.07H2034.2L2010.71 1064.58V1041.36L2034.2 1017.87H2080.37L2104.13 1041.36ZM2199.07 1017.87L2175.58 1041.36H2158.84V1134.51H2192.05V1158H2155.6L2132.11 1134.51V1041.36H2098.9L2122.39 1017.87H2132.11V998.16L2158.84 971.43V1017.87H2199.07ZM2312.78 1158H2239.61L2216.39 1134.51V1041.36L2239.61 1017.87H2289.56L2312.78 1041.36V1088.07L2289.56 1111.29H2246.36L2270.12 1088.07H2286.32V1041.36H2243.12V1134.51H2312.78V1158ZM2510.5 1158H2483.77V1041.36H2443.81V1158H2417.08V1041.36H2377.39V1158H2350.66V1017.87H2377.39V1038.12L2397.1 1017.87H2423.83L2440.3 1034.88L2457.04 1017.87H2487.01L2510.5 1041.36V1158Z" fill="white"/>
</svg>
